# xmcd
#
# Track frame offsets:
#	150
#	18333
#	33190
#	51085
#	68560
#	86290
#	108693
#	125565
#	142143
#	159810
#
# Disc length: 2447 seconds
#
# Revision: 1
# Processed by: cddbd v1.5.1PL2 Copyright (c) Steve Scherf et al.
# Submitted via: audiograbber 1.81.03
#
DISCID=7b098d0a
DTITLE=TECHNODROME - N' JOY MUSIC VOL 1
DYEAR=1900
DGENRE=Cult
TTITLE0=Firestarter
TTITLE1=I wanna be a hippie
TTITLE2=Inside out
TTITLE3=Endless summer
TTITLE4=I kiss your lips
TTITLE5=Knockin'
TTITLE6=Forever young
TTITLE7=Stars
TTITLE8=There is a star
TTITLE9=Back in the UK
EXTD=
EXTT0=
EXTT1=
EXTT2=
EXTT3=
EXTT4=
EXTT5=
EXTT6=
EXTT7=
EXTT8=
EXTT9=
PLAYORDER=
